<svg width="238" height="53" viewBox="0 0 238 53" fill="none" xmlns="http://www.w3.org/2000/svg">
<path d="M38.9971 40.4336H39.3209H39.5076V52.4374H37.5268C24.6633 52.4374 17.2207 45.1572 17.2207 33.272V27.16L21.4006 26.1171C22.6247 25.8096 23.7373 25.167 24.6117 24.2623C25.4862 23.3577 26.0874 22.2274 26.3468 21.0001C26.6063 19.7728 26.5136 18.4978 26.0793 17.3203C25.645 16.1427 24.8866 15.1099 23.8904 14.3394C22.8942 13.5689 21.7001 13.0916 20.4442 12.962C19.1883 12.8323 17.921 13.0555 16.7865 13.606C15.652 14.1565 14.6959 15.0123 14.0271 16.076C13.3583 17.1397 13.0035 18.3685 13.0033 19.6226V45.8074H7.42258e-06V19.1688C-0.000709728 18.3672 0.0505408 17.5665 0.153433 16.7714C1.36716 7.3174 9.67917 0 19.7538 0C28.8875 0 36.5756 6.01713 38.8462 14.1912C40.0265 18.4725 39.6437 23.0305 37.7655 27.0585C36.1739 30.4575 33.6227 33.3243 30.4217 35.3104C31.4957 39.6345 33.7799 40.4336 38.8462 40.4336" fill="#5700FF"/>
<path d="M72.7287 15.0363V22.3748H71.5291C69.0033 22.3748 67.0328 23.0691 65.6174 24.4576C64.2021 25.8461 63.4944 27.7323 63.4944 30.1161V43.3491H56.3975V15.4908H63.4944V19.0925C65.6308 16.3884 68.3091 15.0363 71.5291 15.0363H72.7287Z" fill="#5700FF"/>
<path d="M103.268 31.9831H81.6923C82.1358 33.6664 83.1443 35.1461 84.5489 36.1745C85.9527 37.2062 87.6605 37.7221 89.6723 37.7221C91.2125 37.7396 92.7364 37.4061 94.1284 36.7469C95.373 36.1828 96.4699 35.338 97.3331 34.2787L102.083 38.4413C100.594 40.2134 98.7179 41.6199 96.5995 42.5522C94.3508 43.5425 91.9164 44.0408 89.4595 44.0136C86.6977 44.053 83.971 43.3919 81.5341 42.0919C79.2306 40.8721 77.3091 39.0392 75.982 36.7958C74.6815 34.5366 73.9915 31.9778 73.9799 29.3711C73.9683 26.7644 74.6355 24.1995 75.9158 21.9289C77.1834 19.7345 79.0293 17.9304 81.2521 16.7134C83.5594 15.4405 86.1572 14.7873 88.7921 14.8176C92.971 14.8176 96.4586 16.2099 99.2547 18.9946C102.051 21.7793 103.447 25.2707 103.443 29.4688C103.442 30.3099 103.383 31.1499 103.268 31.9831ZM93.2452 22.602C91.9565 21.5919 90.3663 21.0429 88.7288 21.0429C87.0913 21.0429 85.5011 21.5919 84.2123 22.602C82.912 23.6705 82.0017 25.1392 81.6232 26.779H95.8458C95.4676 25.1384 94.5561 23.6694 93.2539 22.602H93.2452Z" fill="#5700FF"/>
<path d="M149.009 17.6512C150.903 19.5384 151.851 22.0565 151.851 25.2056V43.352H144.737V27.3286C144.737 25.6198 144.243 24.2543 143.255 23.2321C142.267 22.2099 140.946 21.6979 139.291 21.6959C137.548 21.6959 136.133 22.2214 135.048 23.2724C133.962 24.3234 133.42 25.7109 133.42 27.435V43.352H126.323V27.3286C126.323 25.639 125.82 24.2783 124.815 23.2465C123.81 22.2147 122.468 21.6979 120.788 21.6959C119.062 21.6959 117.656 22.2262 116.57 23.2868C115.485 24.3473 114.943 25.7301 114.945 27.435V43.352H107.854V15.4908H114.954V18.3676C117.05 15.9991 119.798 14.8158 123.198 14.8177C124.996 14.7819 126.775 15.19 128.377 16.0058C129.856 16.7737 131.098 17.9317 131.967 19.3543C134.268 16.3318 137.433 14.8196 141.46 14.8177C144.607 14.8215 147.123 15.766 149.009 17.6512Z" fill="#5700FF"/>
<path d="M185.905 29.4228C185.905 33.5691 184.472 37.0384 181.607 39.8308C178.742 42.6231 175.183 44.0174 170.931 44.0136C166.679 44.0136 163.116 42.6174 160.241 39.825C157.366 37.0327 155.928 33.5634 155.926 29.417C155.926 25.2726 157.364 21.8023 160.241 19.0061C163.118 16.2099 166.681 14.8138 170.931 14.8176C175.183 14.8176 178.742 16.2138 181.607 19.0061C184.472 21.7985 185.905 25.2707 185.905 29.4228ZM176.411 34.9317C177.852 33.4646 178.572 31.6283 178.572 29.4228C178.572 27.2173 177.852 25.38 176.411 23.911C174.971 22.4438 173.149 21.7093 170.946 21.7074C169.931 21.6808 168.922 21.864 167.981 22.2457C167.041 22.6274 166.189 23.1992 165.48 23.9253C164.074 25.4105 163.291 27.3778 163.291 29.4228C163.291 31.4677 164.074 33.435 165.48 34.9202C166.19 35.6454 167.041 36.2164 167.982 36.5976C168.922 36.9787 169.931 37.1618 170.946 37.1353C173.141 37.1353 174.961 36.4008 176.403 34.9317H176.411Z" fill="#5700FF"/>
<path d="M198.888 21.9747V33.5593C198.888 35.9431 200.169 37.1351 202.731 37.1351C204.003 37.0897 205.25 36.7708 206.387 36.2001V42.8166C204.781 43.6474 202.991 44.0599 201.183 44.0162C198.071 44.0162 195.726 43.1848 194.15 41.5221C192.573 39.8593 191.786 37.5867 191.788 34.7042V21.9747H187.358V15.4905H191.788V10.8475L198.888 8.41664V15.4905H206.387V21.9747H198.888Z" fill="#5700FF"/>
<path d="M237.841 31.9831H216.249C216.692 33.6664 217.701 35.1462 219.105 36.1745C220.509 37.2062 222.217 37.7221 224.229 37.7221C225.769 37.7396 227.293 37.4061 228.685 36.7469C229.929 36.1828 231.026 35.338 231.889 34.2787L236.639 38.4413C235.15 40.2134 233.274 41.6199 231.156 42.5522C228.908 43.5445 226.473 44.0447 224.016 44.0193C221.254 44.0588 218.527 43.3976 216.09 42.0976C213.787 40.8778 211.865 39.045 210.538 36.8016C209.238 34.5424 208.548 31.9836 208.536 29.3769C208.525 26.7701 209.192 24.2053 210.472 21.9346C211.741 19.7409 213.586 17.937 215.808 16.7191C218.116 15.4462 220.714 14.7931 223.348 14.8233C227.529 14.8233 231.017 16.2157 233.811 19.0004C236.605 21.785 238.002 25.2764 238 29.4745C238.003 30.3133 237.951 31.1514 237.841 31.9831ZM227.83 22.602C226.542 21.5919 224.951 21.0429 223.314 21.0429C221.676 21.0429 220.086 21.5919 218.797 22.602C217.497 23.6705 216.587 25.1392 216.208 26.779H230.419C230.042 25.1388 229.131 23.6698 227.83 22.602V22.602Z" fill="#5700FF"/>
</svg>
